<svg width="38" height="35" viewBox="0 0 38 35" fill="white" xmlns="http://www.w3.org/2000/svg">
<path d="M21.5 3C21.5 1.61929 20.3807 0.5 19 0.5C17.6193 0.5 16.5 1.61929 16.5 3H21.5ZM17.2322 33.7678C18.2085 34.7441 19.7915 34.7441 20.7678 33.7678L36.6777 17.8579C37.654 16.8816 37.654 15.2986 36.6777 14.3223C35.7014 13.346 34.1184 13.346 33.1421 14.3223L19 28.4645L4.85786 14.3223C3.88155 13.346 2.29864 13.346 1.32233 14.3223C0.34602 15.2986 0.34602 16.8816 1.32233 17.8579L17.2322 33.7678ZM16.5 3V32H21.5V3H16.5Z" fill="white" />
</svg>
